<svg xmlns="http://www.w3.org/2000/svg" viewBox="0 0 404.24 110.57"><g id="b130722b-51a1-487a-80d5-6dd0debc077d" data-name="Layer 2"><g id="e2e54fb5-7db6-4db7-8b5e-e8e32f21ec1a" data-name="Layer 1"><path d="M52.43.74,50.67,0q17.51,0,35,.23C99.61.45,110,11.39,110.34,25.34c.26,12,.06,23.92,0,35.88A113.39,113.39,0,0,0,85,22.76,109.49,109.49,0,0,0,52.43.74Z" fill="#00dc98"/><path d="M106.58,74.83a106,106,0,0,1,3.83,23v.91c0,6.88-3.73,11.34-9.56,11.82-6.16.51-10.6-3.47-11.61-10.41C83,57,53.29,27.47,9.94,21.27,3.68,20.38-.2,16.06,0,10.22S4.48.16,10.83.14l5.22,0a98.2,98.2,0,0,1,33.2,8,101.27,101.27,0,0,1,30.16,20.4A105.79,105.79,0,0,1,106.58,74.83Z" fill="#00dc98"/><path d="M16,58.44a2,2,0,0,1,2.64-1.92c.19.06.39.12.59.2C32.71,61.42,46,74.89,47,90.09c0,.37,0,.74.06,1.09a3.3,3.3,0,0,1-3.3,3.39H20.25a4.32,4.32,0,0,1-3-1.25,4.23,4.23,0,0,1-1.25-3ZM3.77,38.21h0A3.76,3.76,0,0,0,0,42V106.8a3.77,3.77,0,0,0,3.77,3.77H65.21A3.76,3.76,0,0,0,69,106.8v-3.39a65.2,65.2,0,0,0-65.2-65.2Z" fill="#243d90"/><path d="M195.83,14.49A42,42,0,0,1,213,31q6.07,10.62,6.07,24.5A48.52,48.52,0,0,1,213,79.91a41.73,41.73,0,0,1-17.22,16.56q-11.16,5.88-25.84,5.87H134.82V8.62h35.11Q184.75,8.62,195.83,14.49Zm-7.21,61q7.22-7.08,7.21-20t-7.21-20.16q-7.2-7.2-20.16-7.21H157.65V82.58h10.81Q181.42,82.58,188.62,75.51Z"/><path d="M252,97.14A46,46,0,0,1,234.48,80,47.9,47.9,0,0,1,228,55.22a47.56,47.56,0,0,1,6.47-24.7A46.06,46.06,0,0,1,252,13.43a50.9,50.9,0,0,1,48.47,0,45.07,45.07,0,0,1,17.35,17.09,48.35,48.35,0,0,1,6.34,24.7A48.25,48.25,0,0,1,317.72,80a45.59,45.59,0,0,1-17.35,17.16,50.76,50.76,0,0,1-48.4,0ZM294.16,75q6.73-7.49,6.74-19.76t-6.74-19.83Q287.41,28,276.2,28t-18.09,7.34q-6.74,7.35-6.74,19.9T258.11,75q6.75,7.41,18.09,7.41T294.16,75Z"/><path d="M404.24,8.62V26.91H379.4v75.43H356.57V26.91H331.74V8.62Z"/></g></g></svg>