<svg width="74" height="69" viewBox="0 0 74 69" fill="none" xmlns="http://www.w3.org/2000/svg">
<path d="M37.5201 21.492C40.4058 21.601 41.8767 25.0763 39.8989 27.2207C39.3693 27.7871 39.0726 28.5322 39.0676 29.3076V33.6597C39.0692 34.1138 38.8905 34.55 38.5708 34.8724C38.2511 35.1949 37.8165 35.3773 37.3624 35.3797C36.9209 35.3723 36.4999 35.1921 36.1898 34.8776C35.8798 34.5632 35.7055 34.1396 35.7044 33.698V29.3076C35.7107 28.5469 35.4254 27.8128 34.9071 27.256C32.8143 25.0453 34.4472 21.3741 37.5201 21.492Z" fill="#243D90"/>
<path d="M61.6287 27.707C61.3933 27.708 61.16 27.6624 60.9424 27.5729C60.7247 27.4833 60.5269 27.3516 60.3603 27.1853C60.1937 27.019 60.0617 26.8214 59.9718 26.6039C59.8819 26.3863 59.8359 26.1532 59.8365 25.9178C59.8365 11.025 45.4418 0.251433 31.1267 4.51663C30.9012 4.58628 30.664 4.61053 30.429 4.58797C30.194 4.56541 29.9659 4.49649 29.7577 4.3852C29.5495 4.27391 29.3654 4.12246 29.2161 3.9396C29.0668 3.75674 28.9552 3.5461 28.8878 3.31985C28.8204 3.0936 28.7985 2.85624 28.8234 2.62149C28.8483 2.38673 28.9195 2.15924 29.0329 1.95216C29.1462 1.74509 29.2995 1.56254 29.4839 1.41506C29.6682 1.26759 29.8799 1.15812 30.1068 1.09298C46.7329 -3.86196 63.4149 8.66098 63.4149 25.9178C63.4153 26.1526 63.3694 26.3852 63.2798 26.6023C63.1902 26.8193 63.0587 27.0166 62.8928 27.1828C62.7269 27.349 62.5298 27.4808 62.3129 27.5708C62.096 27.6607 61.8635 27.707 61.6287 27.707Z" fill="#243D90"/>
<path d="M28.7834 36.8048C26.6868 35.1221 25.162 32.8322 24.4181 30.2488C23.6742 27.6655 23.7475 24.9153 24.628 22.3753C25.5085 19.8353 27.1531 17.6298 29.3363 16.0612C31.5196 14.4926 34.1345 13.6376 36.8227 13.6136C39.5109 13.5896 42.1408 14.3976 44.3517 15.927C46.5626 17.4563 48.2464 19.6321 49.1721 22.1559C50.0979 24.6798 50.2204 27.4283 49.5227 30.0245C48.825 32.6207 47.3414 34.9376 45.2753 36.6575C44.9112 36.9608 44.4415 37.107 43.9696 37.0641C43.4976 37.0211 43.0621 36.7924 42.7588 36.4283C42.4554 36.0642 42.3092 35.5945 42.3522 35.1225C42.3951 34.6506 42.6238 34.2151 42.9879 33.9117C49.7542 28.2774 45.7779 17.1826 36.9453 17.1826C28.0258 17.1826 24.1011 28.4483 31.025 34.0149C31.3921 34.3125 31.6263 34.7434 31.6763 35.2132C31.7264 35.6831 31.5882 36.1536 31.2921 36.5218C30.996 36.89 30.5661 37.1259 30.0965 37.1779C29.6268 37.2298 29.1557 37.0936 28.7863 36.7989L28.7834 36.8048Z" fill="#51B78C"/>
<path d="M36.3204 46.3448C25.4864 46.3448 16.6731 37.5299 16.6731 26.6975C16.6731 10.1377 35.9799 1.07088 48.7254 11.4612C48.9073 11.6095 49.0581 11.7921 49.1694 11.9987C49.2806 12.2052 49.3501 12.4317 49.3739 12.6651C49.3976 12.8985 49.3752 13.1343 49.3078 13.359C49.2404 13.5837 49.1294 13.793 48.9811 13.9748C48.8329 14.1566 48.6503 14.3075 48.4437 14.4188C48.2372 14.53 48.0107 14.5995 47.7773 14.6232C47.5439 14.647 47.3081 14.6245 47.0834 14.5571C46.8587 14.4898 46.6494 14.3788 46.4676 14.2305C36.0581 5.74727 20.2456 13.1325 20.2456 26.6975C20.2506 30.9591 21.9459 35.0447 24.9595 38.058C27.973 41.0712 32.0588 42.7661 36.3204 42.7708C36.7855 42.7842 37.227 42.9783 37.5512 43.312C37.8754 43.6456 38.0568 44.0926 38.0568 44.5578C38.0568 45.023 37.8754 45.47 37.5512 45.8036C37.227 46.1373 36.7855 46.3314 36.3204 46.3448Z" fill="#51B78C"/>
<path d="M46.5501 41.6168C46.2729 41.2323 46.1597 40.7535 46.2354 40.2856C46.3112 39.8177 46.5696 39.399 46.9539 39.1216C49.0233 37.6331 50.7087 35.6734 51.8709 33.4047C53.0331 31.1359 53.6387 28.6231 53.6377 26.074C53.651 25.6089 53.8451 25.1674 54.1788 24.8432C54.5125 24.519 54.9594 24.3376 55.4246 24.3376C55.8899 24.3376 56.3368 24.519 56.6705 24.8432C57.0042 25.1674 57.1983 25.6089 57.2116 26.074C57.2124 29.1893 56.4721 32.2601 55.0519 35.0329C53.6317 37.8056 51.5723 40.2008 49.0438 42.0206C48.8535 42.1578 48.6381 42.2562 48.4098 42.3102C48.1816 42.3642 47.9449 42.3726 47.7133 42.3351C47.4818 42.2976 47.2598 42.2149 47.0603 42.0916C46.8607 41.9684 46.6873 41.807 46.5501 41.6168Z" fill="#51B78C"/>
<path d="M36.3175 52.8413C21.9773 52.8413 10.3166 41.1747 10.3166 26.833C10.3299 26.368 10.524 25.9264 10.8577 25.6022C11.1914 25.278 11.6383 25.0966 12.1036 25.0966C12.5688 25.0966 13.0157 25.278 13.3494 25.6022C13.6831 25.9264 13.8772 26.368 13.8905 26.833C13.8905 39.2042 23.9537 49.2673 36.3234 49.2673C41.5884 49.2663 46.6856 47.4149 50.724 44.0368C51.0873 43.7325 51.5566 43.585 52.0287 43.6267C52.5008 43.6684 52.9369 43.896 53.2412 44.2593C53.5455 44.6227 53.693 45.092 53.6513 45.5641C53.6096 46.0361 53.382 46.4723 53.0187 46.7766C48.3363 50.6924 42.4273 52.8389 36.3234 52.8413H36.3175Z" fill="#243D90"/>
<path d="M53.2353 46.9947C54.746 46.9947 55.9707 45.77 55.9707 44.2593C55.9707 42.7486 54.746 41.5239 53.2353 41.5239C51.7246 41.5239 50.4999 42.7486 50.4999 44.2593C50.4999 45.77 51.7246 46.9947 53.2353 46.9947Z" fill="#243D90"/>
<path d="M55.3635 27.0231C56.8742 27.0231 58.0989 25.7985 58.0989 24.2878C58.0989 22.777 56.8742 21.5524 55.3635 21.5524C53.8528 21.5524 52.6281 22.777 52.6281 24.2878C52.6281 25.7985 53.8528 27.0231 55.3635 27.0231Z" fill="#51B78C"/>
<path d="M31.2033 38.9433C32.7141 38.9433 33.9387 37.7186 33.9387 36.2079C33.9387 34.6972 32.7141 33.4725 31.2033 33.4725C29.6926 33.4725 28.468 34.6972 28.468 36.2079C28.468 37.7186 29.6926 38.9433 31.2033 38.9433Z" fill="#51B78C"/>
<path d="M28.829 6.13044C30.3398 6.13044 31.5644 4.90577 31.5644 3.39506C31.5644 1.88434 30.3398 0.659668 28.829 0.659668C27.3183 0.659668 26.0937 1.88434 26.0937 3.39506C26.0937 4.90577 27.3183 6.13044 28.829 6.13044Z" fill="#243D90"/>
<path d="M38.0698 47.1495C39.5805 47.1495 40.8052 45.9248 40.8052 44.4141C40.8052 42.9034 39.5805 41.6787 38.0698 41.6787C36.5591 41.6787 35.3344 42.9034 35.3344 44.4141C35.3344 45.9248 36.5591 47.1495 38.0698 47.1495Z" fill="#51B78C"/>
<path d="M7.67844 55.0476V65.4483H5.71238L5.52668 64.536C5.04327 65.2478 4.31669 65.6045 3.36166 65.6045C2.90681 65.6078 2.45676 65.5113 2.04323 65.3219C1.6297 65.1324 1.26274 64.8546 0.968196 64.508C0.342346 63.7502 0 62.7981 0 61.8153C0 60.8325 0.342346 59.8804 0.968196 59.1227C1.26274 58.7761 1.6297 58.4982 2.04323 58.3088C2.45676 58.1193 2.90681 58.0229 3.36166 58.0262C4.25921 58.0262 4.92979 58.2959 5.35572 58.8382V55.0476H7.67844ZM2.83551 60.6481C2.68829 60.8034 2.57442 60.9872 2.50091 61.1882C2.42741 61.3892 2.39582 61.6031 2.40811 61.8168C2.39748 62.0319 2.4298 62.2469 2.50318 62.4493C2.57656 62.6518 2.68954 62.8376 2.83551 62.9959C3.67558 63.8654 5.47068 63.3658 5.4132 61.8286V61.7284C5.41805 61.5269 5.38194 61.3266 5.30707 61.1395C5.23221 60.9524 5.12013 60.7825 4.97765 60.64C4.83516 60.4975 4.66523 60.3855 4.47815 60.3106C4.29107 60.2357 4.09073 60.1996 3.88928 60.2045C3.69258 60.2011 3.49734 60.2387 3.31593 60.3148C3.13452 60.3909 2.97092 60.5039 2.83551 60.6466V60.6481Z" fill="#51B78C"/>
<path d="M15.7844 60.7203V65.4497H13.8331L13.6768 64.6377C13.4552 64.9496 13.1595 65.2014 12.8162 65.3704C12.473 65.5395 12.0931 65.6204 11.7108 65.606C10.3843 65.606 9.44553 64.7939 9.44553 63.4837C9.44553 62.0585 10.2856 61.4896 11.839 61.2464L13.4602 60.9767V60.7483C13.4602 60.2782 13.189 59.9642 12.6909 59.9642C12.2207 59.9642 11.8935 60.2782 11.8935 60.6348H9.65923C9.78745 59.0534 10.9267 58.0277 12.6938 58.0277C14.5596 58.0262 15.7844 58.9517 15.7844 60.7203ZM13.4631 62.3415L12.4226 62.5419C11.9805 62.6274 11.7535 62.8558 11.7535 63.211C11.7535 63.5662 11.982 63.7814 12.3946 63.7814C12.5952 63.7876 12.7929 63.7321 12.9611 63.6225C13.1292 63.5129 13.2597 63.3544 13.3349 63.1683C13.4279 62.9631 13.4718 62.739 13.4631 62.5139V62.3415Z" fill="#51B78C"/>
<path d="M20.5728 56.4728L20.5433 58.1824H22.054V60.2914H20.5301L20.5006 62.5139C20.5006 63.1978 20.757 63.4527 21.3849 63.4527C21.611 63.4593 21.8367 63.4304 22.054 63.3673V65.3908C21.6515 65.5071 21.2333 65.5598 20.8145 65.547C19.0341 65.547 18.1616 64.8204 18.1793 63.1108L18.2073 60.2914H17.1388V58.1824H18.2221L18.2353 56.4728H20.5728Z" fill="#51B78C"/>
<path d="M29.79 60.7203V65.4497H27.8372L27.681 64.6377C27.4594 64.9496 27.1636 65.2014 26.8204 65.3704C26.4772 65.5395 26.0972 65.6204 25.7149 65.606C24.3885 65.606 23.4497 64.7939 23.4497 63.4837C23.4497 62.0585 24.2897 61.4896 25.8431 61.2464L27.4643 60.9767V60.7483C27.4643 60.2782 27.1931 59.9642 26.695 59.9642C26.2249 59.9642 25.8977 60.2782 25.8977 60.6348H23.6634C23.7916 59.0534 24.9309 58.0277 26.6979 58.0277C28.5638 58.0262 29.79 58.9517 29.79 60.7203ZM27.4673 62.3415L26.4268 62.5419C25.9846 62.6274 25.7577 62.8558 25.7577 63.211C25.7577 63.5662 25.9861 63.7814 26.3988 63.7814C26.5994 63.7878 26.7972 63.7324 26.9654 63.6228C27.1335 63.5131 27.264 63.3545 27.3391 63.1683C27.4321 62.9631 27.476 62.739 27.4673 62.5139V62.3415Z" fill="#51B78C"/>
<path d="M37.9962 59.08C38.7507 59.7785 39.1207 60.6894 39.1207 61.8153C39.1207 62.9413 38.7507 63.8521 37.9962 64.5507C37.2416 65.2493 36.3293 65.6045 35.2033 65.6045C34.1742 65.6341 33.1752 65.2559 32.4237 64.5522C31.6838 63.8536 31.3134 62.9418 31.3124 61.8168C31.3115 60.6918 31.6819 59.7795 32.4237 59.08C33.1606 58.3814 34.0906 58.0262 35.2018 58.0262C36.3131 58.0262 37.2548 58.3814 37.9962 59.08Z" fill="#243D90"/>
<path d="M47.1986 60.7203V65.4498H44.8774V61.2877C44.8774 60.6186 44.6209 60.2914 44.108 60.2914C43.4669 60.2914 43.1398 60.7468 43.1398 61.6444V65.4483H40.8244V58.1824H42.7905L42.9747 59.0947C43.3741 58.3814 44.0064 58.0262 44.87 58.0262C46.3866 58.0262 47.1986 59.0225 47.1986 60.7203Z" fill="#243D90"/>
<path d="M52.0578 56.4728L52.0283 58.1824H53.539V60.2914H52.015L51.9856 62.5139C51.9856 63.1978 52.242 63.4527 52.8699 63.4527C53.096 63.4593 53.3217 63.4304 53.539 63.3673V65.3908C53.1365 65.5071 52.7183 65.5598 52.2995 65.547C50.5191 65.547 49.6466 64.8204 49.6643 63.1108L49.6923 60.2914H48.6238V58.1824H49.7071L49.7203 56.4728H52.0578Z" fill="#51B78C"/>
<path d="M61.275 60.7203V65.4497H59.3236L59.1659 64.6377C58.9444 64.9497 58.6487 65.2016 58.3054 65.3706C57.9622 65.5397 57.5822 65.6206 57.1999 65.606C55.8734 65.606 54.9346 64.7939 54.9346 63.4837C54.9346 62.0585 55.7762 61.4896 57.3281 61.2464L58.9493 60.9767V60.7483C58.9493 60.2782 58.6796 59.9642 58.18 59.9642C57.7098 59.9642 57.3826 60.2782 57.3826 60.6348H55.1483C55.2766 59.0534 56.4173 58.0277 58.1829 58.0277C60.0502 58.0262 61.275 58.9517 61.275 60.7203ZM58.9522 62.3415L57.9117 62.5419C57.4696 62.6274 57.2426 62.8558 57.2426 63.211C57.2426 63.5662 57.4711 63.7814 57.8837 63.7814C58.0844 63.7878 58.2822 63.7324 58.4503 63.6228C58.6185 63.5131 58.7489 63.3545 58.824 63.1683C58.9171 62.9631 58.961 62.739 58.9522 62.5139V62.3415Z" fill="#51B78C"/>
<path d="M69.9646 58.1824V60.1308H68.9742C69.0029 60.2813 69.0173 60.4343 69.0169 60.5876C69.0224 60.931 68.9496 61.2711 68.8041 61.5821C68.6585 61.8932 68.444 62.167 68.1768 62.3827C67.6212 62.8381 66.9374 63.0666 66.0958 63.0666C65.7945 63.0674 65.4938 63.0383 65.1983 62.9796C65.1134 63.1059 65.0687 63.2549 65.07 63.407C65.07 63.7357 65.2705 63.9067 65.6596 63.9067H67.2056C68.7015 63.9067 69.6418 64.6436 69.6418 66.0864C69.6418 67.7533 68.3448 68.6641 66.2948 68.6641C64.0723 68.6641 62.9183 67.8948 62.9183 66.4534C62.9139 66.203 62.9746 65.9558 63.0945 65.7359C63.2144 65.5161 63.3893 65.3311 63.6021 65.1992C63.3608 65.0126 63.1658 64.7728 63.0323 64.4985C62.8989 64.2242 62.8306 63.9228 62.8328 63.6178C62.8237 63.3153 62.8875 63.015 63.0188 62.7423C63.1502 62.4697 63.3452 62.2326 63.5874 62.0511C63.2348 61.6452 63.0467 61.1222 63.0598 60.5847C63.0502 60.2331 63.1224 59.8841 63.2708 59.5651C63.4191 59.2462 63.6395 58.9661 63.9146 58.7468C64.5041 58.2625 65.2307 58.0203 66.0943 58.0203C66.4517 58.022 66.807 58.0746 67.1496 58.1765L69.9646 58.1824ZM65.6905 65.5514C65.3486 65.6369 65.1776 65.8653 65.1776 66.25C65.1776 66.7776 65.6198 67.0621 66.3021 67.0621C67.0155 67.0621 67.3716 66.7914 67.3707 66.25C67.3707 65.8079 67.0582 65.5514 66.5453 65.5514H65.6905ZM65.3338 60.595C65.3338 61.1212 65.6478 61.4926 66.0604 61.4926C66.4731 61.4926 66.787 61.1212 66.787 60.595C66.787 60.0394 66.4731 59.668 66.0604 59.668C65.6198 59.6636 65.3353 60.0202 65.3353 60.5906L65.3338 60.595Z" fill="#51B78C"/>
<path d="M73.0566 63.382C73.1816 63.5017 73.2811 63.6455 73.3491 63.8047C73.4171 63.9639 73.4522 64.1352 73.4522 64.3083C73.4522 64.4814 73.4171 64.6527 73.3491 64.8119C73.2811 64.9711 73.1816 65.1149 73.0566 65.2346C72.8022 65.4744 72.4658 65.608 72.1163 65.608C71.7667 65.608 71.4303 65.4744 71.176 65.2346C71.054 65.1131 70.9572 64.9688 70.8912 64.8098C70.8252 64.6508 70.7912 64.4804 70.7912 64.3083C70.7912 64.1362 70.8252 63.9657 70.8912 63.8068C70.9572 63.6478 71.054 63.5035 71.176 63.382C71.4303 63.1422 71.7667 63.0086 72.1163 63.0086C72.4658 63.0086 72.8022 63.1422 73.0566 63.382Z" fill="#243D90"/>
</svg>
