<svg xmlns="http://www.w3.org/2000/svg" viewBox="0 0 110.47 169.32"><g id="b8b6410d-11e5-4029-8401-1d74d4170db8" data-name="Layer 2"><g id="e355d7c7-a086-493c-a3f1-1726e7e292ce" data-name="Layer 1"><path d="M52.43.74,50.67,0q17.51,0,35,.23C99.61.45,110,11.39,110.34,25.34c.26,12,.06,23.92,0,35.88A113.39,113.39,0,0,0,85,22.76,109.49,109.49,0,0,0,52.43.74Z" fill="#00dc98"/><path d="M106.58,74.83a106,106,0,0,1,3.83,23v.91c0,6.88-3.73,11.34-9.56,11.82-6.16.51-10.6-3.47-11.61-10.41C83,57,53.29,27.47,9.94,21.27,3.68,20.38-.2,16.06,0,10.22S4.48.16,10.83.14l5.22,0a98.2,98.2,0,0,1,33.2,8,101.27,101.27,0,0,1,30.16,20.4A105.79,105.79,0,0,1,106.58,74.83Z" fill="#00dc98"/><path d="M16,58.44a2,2,0,0,1,2.64-1.92c.19.06.39.12.59.2C32.71,61.42,46,74.89,47,90.09c0,.37,0,.74.06,1.09a3.3,3.3,0,0,1-3.3,3.39H20.25a4.32,4.32,0,0,1-3-1.25,4.23,4.23,0,0,1-1.25-3ZM3.77,38.21h0A3.76,3.76,0,0,0,0,42V106.8a3.77,3.77,0,0,0,3.77,3.77H65.21A3.76,3.76,0,0,0,69,106.8v-3.39a65.2,65.2,0,0,0-65.2-65.2Z" fill="#243d90"/><path d="M25.36,133.18a17.06,17.06,0,0,1,7,6.71,21.32,21.32,0,0,1,0,19.92,17,17,0,0,1-7,6.74,22.21,22.21,0,0,1-10.52,2.39H.52V130.78h14.3A22.12,22.12,0,0,1,25.36,133.18ZM22.43,158q2.92-2.88,2.93-8.16t-2.93-8.21q-2.94-2.93-8.21-2.93H9.82V160.9h4.4Q19.49,160.9,22.43,158Z"/><path d="M48.22,166.82a18.64,18.64,0,0,1-7.12-7,20.53,20.53,0,0,1,0-20.14,18.8,18.8,0,0,1,7.12-7,20.71,20.71,0,0,1,19.73,0,18.39,18.39,0,0,1,7.07,7,20.84,20.84,0,0,1,0,20.14,18.51,18.51,0,0,1-7.07,7,20.65,20.65,0,0,1-19.7,0Zm17.18-9a13.22,13.22,0,0,0,0-16.12,9.41,9.41,0,0,0-7.32-3,9.51,9.51,0,0,0-7.36,3,13.27,13.27,0,0,0,0,16.18,9.46,9.46,0,0,0,7.36,3A9.37,9.37,0,0,0,65.4,157.8Z"/><path d="M110.21,130.78v7.45H100.1v30.71H90.81V138.23H80.7v-7.45Z"/></g></g></svg>