<svg xmlns="http://www.w3.org/2000/svg" viewBox="0 0 110.47 110.57"><g id="f8d1e2cd-1a67-4dd7-80ea-fd5a51aafdac" data-name="Layer 2"><g id="ed2f5335-33c5-4673-889d-3415ec1e38d7" data-name="Layer 1"><path d="M52.43.74,50.67,0q17.51,0,35,.23C99.61.45,110,11.39,110.34,25.34c.26,12,.06,23.92,0,35.88A113.39,113.39,0,0,0,85,22.76,109.49,109.49,0,0,0,52.43.74Z" fill="#00dc98"/><path d="M106.58,74.83a106,106,0,0,1,3.83,23v.91c0,6.88-3.73,11.34-9.56,11.82-6.16.51-10.6-3.47-11.61-10.41C83,57,53.29,27.47,9.94,21.27,3.68,20.38-.2,16.06,0,10.22S4.48.16,10.83.14l5.22,0a98.2,98.2,0,0,1,33.2,8,101.27,101.27,0,0,1,30.16,20.4A105.79,105.79,0,0,1,106.58,74.83Z" fill="#00dc98"/><path d="M16,58.44a2,2,0,0,1,2.64-1.92c.19.06.39.12.59.2C32.71,61.42,46,74.89,47,90.09c0,.37,0,.74.06,1.09a3.3,3.3,0,0,1-3.3,3.39H20.25a4.32,4.32,0,0,1-3-1.25,4.23,4.23,0,0,1-1.25-3ZM3.77,38.21h0A3.76,3.76,0,0,0,0,42V106.8a3.77,3.77,0,0,0,3.77,3.77H65.21A3.76,3.76,0,0,0,69,106.8v-3.39a65.2,65.2,0,0,0-65.2-65.2Z" fill="#243d90"/></g></g></svg>