<svg width="18" height="19" viewBox="0 0 18 19" fill="none" xmlns="http://www.w3.org/2000/svg">
<path d="M1.5 4.69352C1.5 4.28102 1.8345 3.94727 2.24625 3.94727H8.25375C8.45167 3.94727 8.64148 4.02589 8.78143 4.16584C8.92138 4.30579 9 4.4956 9 4.69352C9 4.89143 8.92138 5.08125 8.78143 5.22119C8.64148 5.36114 8.45167 5.43977 8.25375 5.43977H2.24625C2.04833 5.43977 1.85852 5.36114 1.71857 5.22119C1.57862 5.08124 1.5 4.89143 1.5 4.69352Z" fill="#84BB26"/>
<path d="M1.5 9.19718C1.5 8.78468 1.8345 8.45093 2.24625 8.45093H15.7537C15.9517 8.45093 16.1415 8.52955 16.2814 8.6695C16.4214 8.80945 16.5 8.99926 16.5 9.19718C16.5 9.3951 16.4214 9.58491 16.2814 9.72486C16.1415 9.86481 15.9517 9.94343 15.7537 9.94343H2.24625C2.04833 9.94343 1.85852 9.86481 1.71857 9.72486C1.57862 9.58491 1.5 9.3951 1.5 9.19718Z" fill="#84BB26"/>
<path d="M2.24625 12.9548C2.04833 12.9548 1.85852 13.0335 1.71857 13.1734C1.57862 13.3134 1.5 13.5032 1.5 13.7011C1.5 13.899 1.57862 14.0888 1.71857 14.2288C1.85852 14.3687 2.04833 14.4473 2.24625 14.4473H11.2537C11.4517 14.4473 11.6415 14.3687 11.7814 14.2288C11.9214 14.0888 12 13.899 12 13.7011C12 13.5032 11.9214 13.3134 11.7814 13.1734C11.6415 13.0335 11.4517 12.9548 11.2537 12.9548H2.24625Z" fill="#84BB26"/>
</svg>
